<mxfile host="app.diagrams.net" agent="Mozilla/5.0 (Macintosh; Intel Mac OS X 10_15_7) AppleWebKit/537.36 (KHTML, like Gecko) Chrome/136.0.0.0 Safari/537.36" version="27.0.9">
  <diagram name="Page-1" id="Q7BCg2P3eWTY_UJ5dUzq">
    <mxGraphModel dx="872" dy="454" grid="1" gridSize="10" guides="1" tooltips="1" connect="1" arrows="1" fold="1" page="1" pageScale="1" pageWidth="850" pageHeight="1100" math="0" shadow="0">
      <root>
        <mxCell id="0" />
        <mxCell id="1" parent="0" />
        <mxCell id="2MjsSIvVodAU1p2Jacff-11" style="edgeStyle=orthogonalEdgeStyle;rounded=0;orthogonalLoop=1;jettySize=auto;html=1;exitX=0.5;exitY=0;exitDx=0;exitDy=0;exitPerimeter=0;entryX=0.5;entryY=1;entryDx=0;entryDy=0;endArrow=none;startFill=0;" parent="1" source="3sziab8M7hSUIxlEFqxr-1" target="2MjsSIvVodAU1p2Jacff-6" edge="1">
          <mxGeometry relative="1" as="geometry" />
        </mxCell>
        <mxCell id="3sziab8M7hSUIxlEFqxr-1" value="user-service&lt;br&gt;:9001" style="aspect=fixed;sketch=0;html=1;dashed=0;whitespace=wrap;verticalLabelPosition=bottom;verticalAlign=top;fillColor=#2875E2;strokeColor=#ffffff;points=[[0.005,0.63,0],[0.1,0.2,0],[0.9,0.2,0],[0.5,0,0],[0.995,0.63,0],[0.72,0.99,0],[0.5,1,0],[0.28,0.99,0]];shape=mxgraph.kubernetes.icon2;prIcon=api" parent="1" vertex="1">
          <mxGeometry x="375" y="130" width="50" height="48" as="geometry" />
        </mxCell>
        <mxCell id="3sziab8M7hSUIxlEFqxr-2" value="gateway-service&lt;br&gt;:8080" style="sketch=0;outlineConnect=0;fontColor=#232F3E;gradientColor=none;fillColor=#E7157B;strokeColor=none;dashed=0;verticalLabelPosition=bottom;verticalAlign=top;align=center;html=1;fontSize=12;fontStyle=0;aspect=fixed;pointerEvents=1;shape=mxgraph.aws4.endpoint;" parent="1" vertex="1">
          <mxGeometry x="120" y="200" width="50" height="50" as="geometry" />
        </mxCell>
        <mxCell id="2MjsSIvVodAU1p2Jacff-2" value="" style="endArrow=classic;html=1;rounded=0;entryX=0;entryY=0.25;entryDx=0;entryDy=0;" parent="1" source="3sziab8M7hSUIxlEFqxr-2" target="5jVRIpwQaHsUcLMUNntX-2" edge="1">
          <mxGeometry width="50" height="50" relative="1" as="geometry">
            <mxPoint x="400" y="320" as="sourcePoint" />
            <mxPoint x="382" y="319.00800000000004" as="targetPoint" />
          </mxGeometry>
        </mxCell>
        <mxCell id="2MjsSIvVodAU1p2Jacff-3" value="/auth" style="edgeLabel;html=1;align=center;verticalAlign=middle;resizable=0;points=[];" parent="2MjsSIvVodAU1p2Jacff-2" vertex="1" connectable="0">
          <mxGeometry x="0.6174" y="4" relative="1" as="geometry">
            <mxPoint x="-73" y="-26" as="offset" />
          </mxGeometry>
        </mxCell>
        <mxCell id="2MjsSIvVodAU1p2Jacff-6" value="" style="shape=image;verticalLabelPosition=bottom;labelBackgroundColor=default;verticalAlign=top;aspect=fixed;imageAspect=0;image=https://static-00.iconduck.com/assets.00/database-mongo-db-icon-1954x2048-wrw32e9l.png;" parent="1" vertex="1">
          <mxGeometry x="376.14" y="20" width="47.71" height="50" as="geometry" />
        </mxCell>
        <mxCell id="2MjsSIvVodAU1p2Jacff-9" value="" style="endArrow=classic;html=1;rounded=0;entryX=0.005;entryY=0.63;entryDx=0;entryDy=0;entryPerimeter=0;" parent="1" source="3sziab8M7hSUIxlEFqxr-2" target="3sziab8M7hSUIxlEFqxr-1" edge="1">
          <mxGeometry width="50" height="50" relative="1" as="geometry">
            <mxPoint x="230" y="190" as="sourcePoint" />
            <mxPoint x="280" y="140" as="targetPoint" />
          </mxGeometry>
        </mxCell>
        <mxCell id="2MjsSIvVodAU1p2Jacff-10" value="/users" style="edgeLabel;html=1;align=center;verticalAlign=middle;resizable=0;points=[];" parent="2MjsSIvVodAU1p2Jacff-9" vertex="1" connectable="0">
          <mxGeometry x="0.1583" relative="1" as="geometry">
            <mxPoint x="-28" y="5" as="offset" />
          </mxGeometry>
        </mxCell>
        <mxCell id="2MjsSIvVodAU1p2Jacff-17" value="eureka-server&lt;br&gt;&lt;div&gt;:8761&lt;/div&gt;" style="verticalLabelPosition=bottom;html=1;verticalAlign=top;strokeWidth=1;align=center;outlineConnect=0;dashed=0;outlineConnect=0;shape=mxgraph.aws3d.dataServer;strokeColor=#5E5E5E;aspect=fixed;" parent="1" vertex="1">
          <mxGeometry x="290" y="450" width="58.02" height="50" as="geometry" />
        </mxCell>
        <mxCell id="5jVRIpwQaHsUcLMUNntX-2" value="Authorization Server" style="shape=image;verticalLabelPosition=bottom;labelBackgroundColor=default;verticalAlign=top;aspect=fixed;imageAspect=0;image=https://static-00.iconduck.com/assets.00/spring-icon-256x256-2efvkvky.png;" vertex="1" parent="1">
          <mxGeometry x="376.14" y="310" width="55" height="55" as="geometry" />
        </mxCell>
        <mxCell id="5jVRIpwQaHsUcLMUNntX-3" value="user-service&#xa;:9001" style="shape=image;verticalLabelPosition=bottom;labelBackgroundColor=default;verticalAlign=top;aspect=fixed;imageAspect=0;image=https://static-00.iconduck.com/assets.00/spring-icon-256x256-2efvkvky.png;" vertex="1" parent="1">
          <mxGeometry x="480" y="160" width="55" height="55" as="geometry" />
        </mxCell>
        <mxCell id="5jVRIpwQaHsUcLMUNntX-4" value="Resource Server" style="shape=image;verticalLabelPosition=bottom;labelBackgroundColor=default;verticalAlign=top;aspect=fixed;imageAspect=0;image=https://static-00.iconduck.com/assets.00/spring-icon-256x256-2efvkvky.png;" vertex="1" parent="1">
          <mxGeometry x="630" y="310" width="55" height="55" as="geometry" />
        </mxCell>
        <mxCell id="5jVRIpwQaHsUcLMUNntX-5" value="Client Service" style="shape=image;verticalLabelPosition=bottom;labelBackgroundColor=default;verticalAlign=top;aspect=fixed;imageAspect=0;image=https://static-00.iconduck.com/assets.00/spring-icon-256x256-2efvkvky.png;" vertex="1" parent="1">
          <mxGeometry x="117.5" y="300" width="55" height="55" as="geometry" />
        </mxCell>
      </root>
    </mxGraphModel>
  </diagram>
</mxfile>
